SplineFontDB: 3.0
FontName: Duployan
FullName: Duployan
FamilyName: Duployan
Weight: Regular
Copyright: Copyright 2018-2019 David Corbett.\nCopyright 2018-2020 Google LLC. All Rights Reserved.
Version: 1.000
ItalicAngle: 0
UnderlinePosition: -100
UnderlineWidth: 50
Ascent: 800
Descent: 200
InvalidEm: 0
LayerCount: 2
Layer: 0 0 "Back" 1
Layer: 1 0 "Fore" 0
XUID: [1021 866 925171143 11869304]
FSType: 0
OS2Version: 0
OS2_WeightWidthSlopeOnly: 0
OS2_UseTypoMetrics: 1
CreationTime: 1523136075
ModificationTime: 1588434063
PfmFamily: 17
TTFWeight: 400
TTFWidth: 5
LineGap: 90
VLineGap: 0
Panose: 1 1 1 1 1 1 1 1 1 1
OS2TypoAscent: 0
OS2TypoAOffset: 1
OS2TypoDescent: 0
OS2TypoDOffset: 1
OS2TypoLinegap: 90
OS2WinAscent: 0
OS2WinAOffset: 1
OS2WinDescent: 0
OS2WinDOffset: 1
HheadAscent: 0
HheadAOffset: 1
HheadDescent: 0
HheadDOffset: 1
OS2Vendor: '    '
Lookup: 260 0 0 "'mark' absolutely positioned marks" { "'mark' absolutely positioned marks-1"  "'mark' absolutely positioned marks-2"  } ['mark' ('DFLT' <'dflt' > 'dupl' <'dflt' > ) ]
MarkAttachClasses: 1
DEI: 91125

StartChar: zero
Encoding: 48 48 1
Width: 584
Flags: HW
LayerCount: 2
Fore
SplineSet
529 358 m 0
 529 127 462 -10 291 -10 c 0
 130 -10 55 127 55 358 c 0
 55 589 120 725 291 725 c 0
 451 725 529 590 529 358 c 0
143 358 m 0
 143 162 183 65 291 65 c 0
 398 65 440 161 440 358 c 0
 440 553 398 650 291 650 c 0
 183 650 143 553 143 358 c 0
EndSplineSet
EndChar

StartChar: one
Encoding: 49 49 2
Width: 441
Flags: HW
LayerCount: 2
Fore
SplineSet
205 0 m 1
 205 499 l 2
 205 556 206 584 209 622 c 1
 188 600 173 589 147 567 c 2
 71 505 l 1
 25 564 l 1
 218 714 l 1
 291 714 l 1
 291 0 l 1
 205 0 l 1
EndSplineSet
EndChar

StartChar: two
Encoding: 50 50 3
Width: 555
Flags: HW
LayerCount: 2
Fore
SplineSet
38 0 m 1
 38 73 l 1
 225 262 l 2
 332 370 391 432 391 529 c 0
 391 607 340 649 265 649 c 0
 195 649 148 624 93 581 c 1
 46 640 l 1
 102 687 174 724 265 724 c 0
 398 724 481 652 481 534 c 0
 481 422 408 338 298 231 c 2
 149 84 l 1
 149 80 l 1
 510 80 l 1
 510 0 l 1
 38 0 l 1
EndSplineSet
EndChar

StartChar: three
Encoding: 51 51 4
Width: 572
Flags: HW
LayerCount: 2
Fore
SplineSet
493 547 m 0
 493 451 435 394 345 376 c 1
 345 372 l 1
 459 358 515 297 515 203 c 0
 515 78 430 -10 241 -10 c 0
 166 -10 104 0 45 29 c 1
 45 111 l 1
 105 81 178 64 242 64 c 0
 370 64 423 117 423 205 c 0
 423 294 349 331 223 331 c 2
 154 331 l 1
 154 406 l 1
 224 406 l 2
 341 406 403 460 403 541 c 0
 403 610 353 650 273 650 c 0
 196 650 146 625 93 590 c 1
 49 650 l 1
 100 690 176 724 272 724 c 0
 421 724 493 649 493 547 c 0
EndSplineSet
EndChar

StartChar: four
Encoding: 52 52 5
Width: 572
Flags: HW
LayerCount: 2
Fore
SplineSet
363 0 m 1
 363 162 l 1
 21 162 l 1
 21 237 l 1
 357 718 l 1
 448 718 l 1
 448 241 l 1
 552 241 l 1
 552 162 l 1
 448 162 l 1
 448 0 l 1
 363 0 l 1
363 241 m 1
 363 466 l 2
 363 535 364 586 367 620 c 1
 363 620 l 1
 349 595 324 556 310 536 c 2
 107 241 l 1
 363 241 l 1
EndSplineSet
EndChar

StartChar: five
Encoding: 53 53 6
Width: 572
Flags: HW
LayerCount: 2
Fore
SplineSet
275 438 m 0
 421 438 515 361 515 228 c 0
 515 80 416 -10 248 -10 c 0
 174 -10 107 3 63 29 c 1
 63 112 l 1
 111 83 186 65 249 65 c 0
 354 65 425 114 425 219 c 0
 425 312 370 364 246 364 c 0
 208 364 153 356 124 349 c 1
 80 377 l 1
 107 714 l 1
 465 714 l 1
 465 634 l 1
 182 634 l 1
 165 427 l 1
 188 431 228 438 275 438 c 0
EndSplineSet
EndChar

StartChar: six
Encoding: 54 54 7
Width: 572
Flags: HW
LayerCount: 2
Fore
SplineSet
55 305 m 0
 55 510 113 724 382 724 c 0
 410 724 448 721 470 715 c 1
 470 640 l 1
 446 648 414 652 384 652 c 0
 199 652 150 519 143 363 c 1
 149 363 l 1
 179 410 232 447 318 447 c 0
 442 447 525 368 525 230 c 0
 525 81 437 -10 298 -10 c 0
 162 -10 55 91 55 305 c 0
297 64 m 0
 381 64 438 117 438 230 c 0
 438 321 392 378 300 378 c 0
 206 378 144 310 144 247 c 0
 144 160 196 64 297 64 c 0
EndSplineSet
EndChar

StartChar: seven
Encoding: 55 55 8
Width: 511
Flags: HW
LayerCount: 2
Fore
SplineSet
100 0 m 1
 393 634 l 1
 8 634 l 1
 8 714 l 1
 487 714 l 1
 487 646 l 1
 197 0 l 1
 100 0 l 1
EndSplineSet
EndChar

StartChar: eight
Encoding: 56 56 9
Width: 589
Flags: HW
LayerCount: 2
Fore
SplineSet
297 -10 m 0
 143 -10 58 61 58 182 c 0
 58 279 127 337 206 373 c 1
 136 413 81 466 81 554 c 0
 81 663 172 724 294 724 c 0
 419 724 508 664 508 553 c 0
 508 467 446 416 372 378 c 1
 460 335 531 282 531 185 c 0
 531 65 439 -10 297 -10 c 0
298 412 m 1
 367 441 421 478 421 550 c 0
 421 616 370 653 293 653 c 0
 219 653 167 616 167 550 c 0
 167 476 225 443 298 412 c 1
295 60 m 0
 392 60 445 111 445 184 c 0
 445 253 386 296 295 331 c 2
 279 337 l 1
 191 299 144 254 144 181 c 0
 144 112 192 60 295 60 c 0
EndSplineSet
EndChar

StartChar: nine
Encoding: 57 57 10
Width: 572
Flags: HW
LayerCount: 2
Fore
SplineSet
520 409 m 0
 520 204 462 -10 192 -10 c 0
 165 -10 124 -7 102 0 c 1
 102 75 l 1
 126 67 160 62 190 62 c 0
 376 62 425 194 431 350 c 1
 425 350 l 1
 395 304 342 267 255 267 c 0
 132 267 50 345 50 483 c 0
 50 632 140 724 278 724 c 0
 414 724 520 622 520 409 c 0
278 650 m 0
 195 650 137 596 137 484 c 0
 137 393 181 337 274 337 c 0
 370 337 431 403 431 467 c 0
 431 553 380 650 278 650 c 0
EndSplineSet
EndChar

StartChar: equal
Encoding: 61 61 11
Width: 572
Flags: HW
LayerCount: 2
Fore
SplineSet
56 416 m 1
 56 487 l 1
 514 487 l 1
 514 416 l 1
 56 416 l 1
56 217 m 1
 56 288 l 1
 514 288 l 1
 514 217 l 1
 56 217 l 1
EndSplineSet
EndChar

StartChar: period
Encoding: 46 46 12
Width: 268
Flags: HW
LayerCount: 2
Fore
SplineSet
72 54 m 0
 72 103 99 121 133 121 c 0
 167 121 196 103 196 54 c 0
 196 6 167 -14 133 -14 c 0
 99 -14 72 6 72 54 c 0
EndSplineSet
EndChar

StartChar: plus
Encoding: 43 43 13
Width: 572
Flags: HW
LayerCount: 2
Fore
SplineSet
321 388 m 1
 520 388 l 1
 520 317 l 1
 321 317 l 1
 321 111 l 1
 249 111 l 1
 249 317 l 1
 50 317 l 1
 50 388 l 1
 249 388 l 1
 249 595 l 1
 321 595 l 1
 321 388 l 1
EndSplineSet
EndChar

StartChar: less
Encoding: 60 60 14
Width: 572
Flags: HW
LayerCount: 2
Fore
SplineSet
521 116 m 1
 50 323 l 1
 50 373 l 1
 521 608 l 1
 521 530 l 1
 144 352 l 1
 521 194 l 1
 521 116 l 1
EndSplineSet
EndChar

StartChar: greater
Encoding: 62 62 15
Width: 572
Flags: HW
LayerCount: 2
Fore
SplineSet
50 194 m 1
 427 351 l 1
 50 530 l 1
 50 608 l 1
 521 373 l 1
 521 323 l 1
 50 116 l 1
 50 194 l 1
EndSplineSet
EndChar

StartChar: question
Encoding: 63 63 16
Width: 434
Flags: HW
LayerCount: 2
Fore
SplineSet
140 201 m 1
 140 228 l 2
 140 303 159 343 224 398 c 0
 301 463 324 487 324 547 c 0
 324 611 281 647 203 647 c 0
 137 647 89 627 43 605 c 1
 12 675 l 1
 65 703 129 724 209 724 c 0
 336 724 408 657 408 549 c 0
 408 459 362 418 290 358 c 0
 223 301 210 275 210 218 c 2
 210 201 l 1
 140 201 l 1
117 54 m 0
 117 103 143 121 179 121 c 0
 212 121 240 103 240 54 c 0
 240 6 212 -14 179 -14 c 0
 143 -14 117 6 117 54 c 0
EndSplineSet
EndChar

StartChar: divide
Encoding: 247 247 17
Width: 572
Flags: HW
LayerCount: 2
Fore
SplineSet
285 462 m 0
 254 462 229 480 229 523 c 0
 229 568 254 583 285 583 c 0
 315 583 340 568 340 523 c 0
 340 480 315 462 285 462 c 0
50 317 m 1
 50 388 l 1
 521 388 l 1
 521 317 l 1
 50 317 l 1
285 121 m 0
 254 121 229 139 229 182 c 0
 229 227 254 242 285 242 c 0
 315 242 340 227 340 182 c 0
 340 139 315 121 285 121 c 0
EndSplineSet
EndChar

StartChar: gravecomb
Encoding: 768 768 18
Width: 0
Flags: HW
AnchorPoint: "above" -363 536 mark 0
LayerCount: 2
Fore
SplineSet
-388 766 m 1
 -366 721 -323 655 -292 618 c 1
 -292 606 l 1
 -351 606 l 1
 -397 642 -470 719 -493 756 c 1
 -493 766 l 1
 -388 766 l 1
EndSplineSet
EndChar

StartChar: acutecomb
Encoding: 769 769 19
Width: 0
Flags: HW
AnchorPoint: "above" -272 536 mark 0
LayerCount: 2
Fore
SplineSet
-124 766 m 1
 -124 756 l 1
 -149 719 -220 642 -267 606 c 1
 -325 606 l 1
 -325 618 l 1
 -296 655 -253 721 -230 766 c 1
 -124 766 l 1
EndSplineSet
EndChar

StartChar: uni0324
Encoding: 804 804 20
Width: 0
Flags: HW
AnchorPoint: "below" -1 0 mark 0
LayerCount: 2
Fore
SplineSet
-141 -125 m 0
 -141 -90 -120 -76 -94 -76 c 0
 -69 -76 -47 -90 -47 -125 c 0
 -47 -159 -69 -175 -94 -175 c 0
 -120 -175 -141 -159 -141 -125 c 0
47 -125 m 0
 47 -90 68 -76 93 -76 c 0
 118 -76 140 -90 140 -125 c 0
 140 -159 118 -175 93 -175 c 0
 68 -175 47 -159 47 -125 c 0
EndSplineSet
EndChar

StartChar: uni0317
Encoding: 791 791 21
Width: 0
Flags: HW
AnchorPoint: "below" 1 0 mark 0
LayerCount: 2
Fore
SplineSet
101 -44 m 1
 101 -54 l 1
 76 -91 5 -168 -42 -204 c 1
 -100 -204 l 1
 -100 -192 l 1
 -71 -155 -28 -89 -5 -44 c 1
 101 -44 l 1
EndSplineSet
EndChar

StartChar: uni0316
Encoding: 790 790 22
Width: 0
Flags: HW
AnchorPoint: "below" 1 0 mark 0
LayerCount: 2
Fore
SplineSet
5 -44 m 1
 27 -89 70 -155 101 -192 c 1
 101 -204 l 1
 42 -204 l 1
 -4 -168 -77 -91 -100 -54 c 1
 -100 -44 l 1
 5 -44 l 1
EndSplineSet
EndChar

StartChar: uni0308
Encoding: 776 776 23
Width: 0
Flags: HW
AnchorPoint: "above" -1 536 mark 0
LayerCount: 2
Fore
SplineSet
-141 681 m 0
 -141 716 -120 730 -94 730 c 0
 -69 730 -47 716 -47 681 c 0
 -47 647 -69 631 -94 631 c 0
 -120 631 -141 647 -141 681 c 0
47 681 m 0
 47 716 68 730 93 730 c 0
 118 730 140 716 140 681 c 0
 140 647 118 631 93 631 c 0
 68 631 47 647 47 681 c 0
EndSplineSet
EndChar

StartChar: uni25CC
Encoding: 9676 9676 24
Width: 594
Flags: HW
AnchorPoint: "below" 297 42 basechar 0
AnchorPoint: "above" 297 540 basechar 0
LayerCount: 2
Fore
SplineSet
297 540 m 0
 311 540 323 528 323 514 c 0
 323 500 311 488 297 488 c 0
 283 488 271 500 271 514 c 0
 271 528 283 540 297 540 c 0
213 522 m 0
 227 522 239 510 239 496 c 0
 239 482 227 470 213 470 c 0
 199 470 187 482 187 496 c 0
 187 510 199 522 213 522 c 0
381 522 m 0
 395 522 407 510 407 496 c 0
 407 482 395 470 381 470 c 0
 367 470 355 482 355 496 c 0
 355 510 367 522 381 522 c 0
113 449 m 0
 113 463 125 475 139 475 c 0
 153 475 165 463 165 449 c 0
 165 435 153 423 139 423 c 0
 125 423 113 435 113 449 c 0
429 449 m 0
 429 463 441 475 455 475 c 0
 469 475 481 463 481 449 c 0
 481 435 469 423 455 423 c 0
 441 423 429 435 429 449 c 0
66 375 m 0
 66 389 78 401 92 401 c 0
 106 401 118 389 118 375 c 0
 118 361 106 349 92 349 c 0
 78 349 66 361 66 375 c 0
476 375 m 0
 476 389 488 401 502 401 c 0
 516 401 528 389 528 375 c 0
 528 361 516 349 502 349 c 0
 488 349 476 361 476 375 c 0
48 291 m 0
 48 305 60 317 74 317 c 0
 88 317 100 305 100 291 c 0
 100 277 88 265 74 265 c 0
 60 265 48 277 48 291 c 0
494 291 m 0
 494 305 506 317 520 317 c 0
 534 317 546 305 546 291 c 0
 546 277 534 265 520 265 c 0
 506 265 494 277 494 291 c 0
66 207 m 0
 66 221 78 233 92 233 c 0
 106 233 118 221 118 207 c 0
 118 193 106 181 92 181 c 0
 78 181 66 193 66 207 c 0
476 207 m 0
 476 221 488 233 502 233 c 0
 516 233 528 221 528 207 c 0
 528 193 516 181 502 181 c 0
 488 181 476 193 476 207 c 0
113 133 m 0
 113 147 125 159 139 159 c 0
 153 159 165 147 165 133 c 0
 165 119 153 107 139 107 c 0
 125 107 113 119 113 133 c 0
429 133 m 0
 429 147 441 159 455 159 c 0
 469 159 481 147 481 133 c 0
 481 119 469 107 455 107 c 0
 441 107 429 119 429 133 c 0
213 112 m 0
 227 112 239 100 239 86 c 0
 239 72 227 60 213 60 c 0
 199 60 187 72 187 86 c 0
 187 100 199 112 213 112 c 0
381 112 m 0
 395 112 407 100 407 86 c 0
 407 72 395 60 381 60 c 0
 367 60 355 72 355 86 c 0
 355 100 367 112 381 112 c 0
297 94 m 0
 311 94 323 82 323 68 c 0
 323 54 311 42 297 42 c 0
 283 42 271 54 271 68 c 0
 271 82 283 94 297 94 c 0
EndSplineSet
EndChar

StartChar: .notdef
Encoding: 1114112 -1 25
Width: 600
Flags: HW
LayerCount: 2
Fore
SplineSet
94 0 m 1
 94 714 l 1
 505 714 l 1
 505 0 l 1
 94 0 l 1
145 51 m 1
 454 51 l 1
 454 663 l 1
 145 663 l 1
 145 51 l 1
EndSplineSet
EndChar

StartChar: exclam
Encoding: 33 33 26
Width: 269
Flags: HW
LayerCount: 2
Fore
SplineSet
163 201 m 1
 106 201 l 1
 81 714 l 1
 188 714 l 1
 163 201 l 1
72 54 m 0
 72 103 99 121 134 121 c 0
 167 121 196 103 196 54 c 0
 196 6 167 -14 134 -14 c 0
 99 -14 72 6 72 54 c 0
EndSplineSet
EndChar

StartChar: dollar
Encoding: 36 36 27
Width: 572
Flags: HW
LayerCount: 2
Fore
SplineSet
253 -58 m 1
 253 49 l 1
 179 50 105 62 62 82 c 1
 62 167 l 1
 107 146 185 127 253 126 c 1
 253 328 l 1
 121 364 62 413 62 508 c 0
 62 606 136 664 253 671 c 1
 253 759 l 1
 317 759 l 1
 317 672 l 1
 388 670 445 655 493 635 c 1
 466 561 l 1
 423 578 370 592 317 596 c 1
 317 395 l 1
 449 357 516 320 516 220 c 0
 516 127 444 66 317 53 c 1
 317 -58 l 1
 253 -58 l 1
253 417 m 1
 253 594 l 1
 181 589 148 559 148 515 c 0
 148 462 173 437 253 417 c 1
317 131 m 1
 395 139 430 169 430 214 c 0
 430 264 404 285 317 307 c 1
 317 131 l 1
EndSplineSet
EndChar

StartChar: parenleft
Encoding: 40 40 28
Width: 300
Flags: HW
LayerCount: 2
Fore
SplineSet
40 274 m 0
 40 437 86 593 187 714 c 1
 270 714 l 1
 177 589 129 433 129 275 c 0
 129 120 177 -33 269 -158 c 1
 187 -158 l 1
 86 -41 40 113 40 274 c 0
EndSplineSet
EndChar

StartChar: parenright
Encoding: 41 41 29
Width: 300
Flags: HW
LayerCount: 2
Fore
SplineSet
260 274 m 0
 260 113 214 -41 113 -158 c 1
 31 -158 l 1
 123 -33 171 120 171 275 c 0
 171 433 123 589 30 714 c 1
 113 714 l 1
 214 593 260 437 260 274 c 0
EndSplineSet
EndChar

StartChar: asterisk
Encoding: 42 42 30
Width: 551
Flags: HW
LayerCount: 2
Fore
SplineSet
322 760 m 1
 302 568 l 1
 494 622 l 1
 508 530 l 1
 324 515 l 1
 443 357 l 1
 357 310 l 1
 272 485 l 1
 195 310 l 1
 106 357 l 1
 223 515 l 1
 41 530 l 1
 55 622 l 1
 245 568 l 1
 224 760 l 1
 322 760 l 1
EndSplineSet
EndChar

StartChar: comma
Encoding: 44 44 31
Width: 268
Flags: HW
LayerCount: 2
Fore
SplineSet
185 116 m 1
 192 105 l 1
 174 34 138 -57 106 -129 c 1
 41 -129 l 1
 60 -53 81 46 91 116 c 1
 185 116 l 1
EndSplineSet
EndChar

StartChar: slash
Encoding: 47 47 32
Width: 372
Flags: HW
LayerCount: 2
Fore
SplineSet
362 714 m 1
 96 0 l 1
 10 0 l 1
 276 714 l 1
 362 714 l 1
EndSplineSet
EndChar

StartChar: colon
Encoding: 58 58 33
Width: 268
Flags: HW
LayerCount: 2
Fore
SplineSet
72 482 m 0
 72 532 99 550 133 550 c 0
 167 550 196 532 196 482 c 0
 196 434 167 414 133 414 c 0
 99 414 72 434 72 482 c 0
72 54 m 0
 72 103 99 121 133 121 c 0
 167 121 196 103 196 54 c 0
 196 6 167 -14 133 -14 c 0
 99 -14 72 6 72 54 c 0
EndSplineSet
EndChar

StartChar: semicolon
Encoding: 59 59 34
Width: 268
Flags: HW
LayerCount: 2
Fore
SplineSet
70 482 m 0
 70 532 97 550 131 550 c 0
 166 550 194 532 194 482 c 0
 194 434 166 414 131 414 c 0
 97 414 70 434 70 482 c 0
176 116 m 1
 183 105 l 1
 165 35 129 -58 97 -129 c 1
 31 -129 l 1
 50 -54 72 46 82 116 c 1
 176 116 l 1
EndSplineSet
EndChar

StartChar: guillemotleft
Encoding: 171 171 35
Width: 509
Flags: HW
LayerCount: 2
Fore
SplineSet
40 270 m 1
 208 471 l 1
 271 435 l 1
 131 264 l 1
 271 93 l 1
 208 56 l 1
 40 257 l 1
 40 270 l 1
238 270 m 1
 408 471 l 1
 470 435 l 1
 330 264 l 1
 470 93 l 1
 408 56 l 1
 238 257 l 1
 238 270 l 1
EndSplineSet
EndChar

StartChar: guillemotright
Encoding: 187 187 36
Width: 509
Flags: HW
LayerCount: 2
Fore
SplineSet
469 257 m 1
 299 56 l 1
 237 93 l 1
 377 264 l 1
 237 435 l 1
 299 471 l 1
 469 270 l 1
 469 257 l 1
270 257 m 1
 101 56 l 1
 39 93 l 1
 179 264 l 1
 39 435 l 1
 101 471 l 1
 270 270 l 1
 270 257 l 1
EndSplineSet
EndChar

StartChar: uni0302
Encoding: 770 770 37
Width: 0
Flags: HW
AnchorPoint: "above" 2 536 mark 0
LayerCount: 2
Fore
SplineSet
46 766 m 1
 70 721 133 655 171 617 c 1
 171 606 l 1
 109 606 l 1
 74 627 36 660 0 696 c 1
 -36 660 -72 628 -107 606 c 1
 -167 606 l 1
 -167 617 l 1
 -130 656 -70 721 -44 766 c 1
 46 766 l 1
EndSplineSet
EndChar

StartChar: uni0306
Encoding: 774 774 38
Width: 0
Flags: HW
AnchorPoint: "above" 1 536 mark 0
LayerCount: 2
Fore
SplineSet
156 740 m 1
 149 660 94 606 -2 606 c 0
 -101 606 -150 658 -155 740 c 1
 -101 740 l 1
 -95 685 -61 677 0 677 c 0
 52 677 94 688 101 740 c 1
 156 740 l 1
EndSplineSet
EndChar

StartChar: uni030C
Encoding: 780 780 39
Width: 0
Flags: HW
AnchorPoint: "above" 0 536 mark 0
LayerCount: 2
Fore
SplineSet
-46 606 m 1
 -72 651 -133 715 -169 753 c 1
 -169 766 l 1
 -109 766 l 1
 -74 743 -35 710 -2 674 c 1
 34 710 72 743 107 766 c 1
 169 766 l 1
 169 753 l 1
 131 715 68 651 44 606 c 1
 -46 606 l 1
EndSplineSet
EndChar

StartChar: quotedblleft
Encoding: 8220 8220 40
Width: 359
Flags: HW
LayerCount: 2
Fore
SplineSet
347 714 m 1
 328 637 307 538 297 469 c 1
 202 469 l 1
 195 480 l 1
 213 550 249 642 282 714 c 1
 347 714 l 1
162 714 m 1
 143 637 122 538 112 469 c 1
 18 469 l 1
 12 480 l 1
 30 550 65 642 98 714 c 1
 162 714 l 1
EndSplineSet
EndChar

StartChar: quotedblright
Encoding: 8221 8221 41
Width: 359
Flags: HW
LayerCount: 2
Fore
SplineSet
340 714 m 1
 347 703 l 1
 329 632 293 540 261 469 c 1
 195 469 l 1
 214 544 236 644 246 714 c 1
 340 714 l 1
155 714 m 1
 162 703 l 1
 144 632 108 540 76 469 c 1
 12 469 l 1
 31 544 51 644 61 714 c 1
 155 714 l 1
EndSplineSet
EndChar

StartChar: quotedblbase
Encoding: 8222 8222 42
Width: 416
Flags: HW
LayerCount: 2
Fore
SplineSet
359 116 m 1
 366 105 l 1
 348 34 312 -58 280 -129 c 1
 214 -129 l 1
 233 -54 255 46 265 116 c 1
 359 116 l 1
174 116 m 1
 181 105 l 1
 163 34 127 -58 95 -129 c 1
 31 -129 l 1
 50 -54 70 46 80 116 c 1
 174 116 l 1
EndSplineSet
EndChar

StartChar: ellipsis
Encoding: 8230 8230 43
Width: 791
Flags: HW
LayerCount: 2
Fore
SplineSet
72 54 m 0
 72 103 99 121 133 121 c 0
 167 121 196 103 196 54 c 0
 196 6 167 -14 133 -14 c 0
 99 -14 72 6 72 54 c 0
334 54 m 0
 334 103 361 121 395 121 c 0
 429 121 458 103 458 54 c 0
 458 6 429 -14 395 -14 c 0
 361 -14 334 6 334 54 c 0
595 54 m 0
 595 103 622 121 656 121 c 0
 690 121 719 103 719 54 c 0
 719 6 690 -14 656 -14 c 0
 622 -14 595 6 595 54 c 0
EndSplineSet
EndChar

StartChar: uni211F
Encoding: 8479 8479 44
Width: 596
Flags: HW
LayerCount: 2
Fore
SplineSet
294 714 m 2
 325 714 354 712 380 708 c 1
 394 769 l 1
 174 821 l 1
 188 873 l 1
 459 805 l 1
 433 694 l 1
 515 665 554 604 554 511 c 0
 554 397 483 345 411 320 c 1
 607 0 l 1
 502 0 l 1
 336 284 l 1
 234 -145 l 1
 179 -145 l 1
 283 295 l 1
 187 295 l 1
 187 0 l 1
 97 0 l 1
 97 714 l 1
 294 714 l 2
289 636 m 2
 187 636 l 1
 187 371 l 1
 294 371 l 1
 294 371 294 371 300 371 c 1
 361 630 l 1
 341 634 316 636 289 636 c 2
461 507 m 0
 461 557 445 590 413 610 c 1
 358 377 l 1
 429 392 461 436 461 507 c 0
EndSplineSet
EndChar

StartChar: uni2123
Encoding: 8483 8483 45
Width: 606
Flags: HW
LayerCount: 2
Fore
SplineSet
351 764 m 1
 133 822 l 1
 149 873 l 1
 417 797 l 1
 265 228 l 1
 280 181 292 139 300 100 c 1
 309 147 324 198 345 258 c 2
 505 714 l 1
 600 714 l 1
 345 0 l 1
 255 0 l 1
 226 82 l 1
 165 -145 l 1
 110 -145 l 1
 194 171 l 1
 0 714 l 1
 94 714 l 1
 233 319 l 1
 351 764 l 1
EndSplineSet
EndChar

StartChar: u1BCA3
Encoding: 113827 113827 46
Width: 1128
Flags: HW
LayerCount: 2
Fore
SplineSet
975 593 m 1
 975 687 l 1
 880 687 l 1
 880 741 l 1
 1028 741 l 1
 1028 593 l 1
 975 593 l 1
689 687 m 1
 689 741 l 1
 822 741 l 1
 822 687 l 1
 689 687 l 1
498 687 m 1
 498 741 l 1
 631 741 l 1
 631 687 l 1
 498 687 l 1
307 687 m 1
 307 741 l 1
 439 741 l 1
 439 687 l 1
 307 687 l 1
100 593 m 1
 100 741 l 1
 248 741 l 1
 248 687 l 1
 154 687 l 1
 154 593 l 1
 100 593 l 1
543 -30 m 1
 543 453 l 1
 521 434 489 415 447 395 c 1
 447 430 l 1
 496 471 532 515 555 562 c 1
 573 562 l 1
 596 515 632 471 681 430 c 1
 681 395 l 1
 639 415 607 434 585 453 c 1
 585 -30 l 1
 543 -30 l 1
100 402 m 1
 100 534 l 1
 154 534 l 1
 154 402 l 1
 100 402 l 1
975 402 m 1
 975 534 l 1
 1028 534 l 1
 1028 402 l 1
 975 402 l 1
100 210 m 1
 100 343 l 1
 154 343 l 1
 154 210 l 1
 100 210 l 1
975 210 m 1
 975 343 l 1
 1028 343 l 1
 1028 210 l 1
 975 210 l 1
975 19 m 1
 975 151 l 1
 1028 151 l 1
 1028 19 l 1
 975 19 l 1
100 19 m 1
 100 151 l 1
 154 151 l 1
 154 19 l 1
 100 19 l 1
880 -187 m 1
 880 -134 l 1
 975 -134 l 1
 975 -39 l 1
 1028 -39 l 1
 1028 -187 l 1
 880 -187 l 1
100 -187 m 1
 100 -39 l 1
 154 -39 l 1
 154 -134 l 1
 248 -134 l 1
 248 -187 l 1
 100 -187 l 1
498 -187 m 1
 498 -134 l 1
 631 -134 l 1
 631 -187 l 1
 498 -187 l 1
689 -187 m 1
 689 -134 l 1
 822 -134 l 1
 822 -187 l 1
 689 -187 l 1
307 -187 m 1
 307 -134 l 1
 439 -134 l 1
 439 -187 l 1
 307 -187 l 1
EndSplineSet
EndChar

StartChar: u1BCA2
Encoding: 113826 113826 47
Width: 1128
Flags: HW
LayerCount: 2
Fore
SplineSet
975 593 m 1
 975 687 l 1
 880 687 l 1
 880 741 l 1
 1028 741 l 1
 1028 593 l 1
 975 593 l 1
689 687 m 1
 689 741 l 1
 822 741 l 1
 822 687 l 1
 689 687 l 1
498 687 m 1
 498 741 l 1
 631 741 l 1
 631 687 l 1
 498 687 l 1
307 687 m 1
 307 741 l 1
 439 741 l 1
 439 687 l 1
 307 687 l 1
100 593 m 1
 100 741 l 1
 248 741 l 1
 248 687 l 1
 154 687 l 1
 154 593 l 1
 100 593 l 1
555 -30 m 1
 532 17 496 61 447 102 c 1
 447 137 l 1
 489 117 521 98 543 79 c 1
 543 562 l 1
 585 562 l 1
 585 79 l 1
 607 98 639 117 681 137 c 1
 681 102 l 1
 632 61 596 17 573 -30 c 1
 555 -30 l 1
100 402 m 1
 100 534 l 1
 154 534 l 1
 154 402 l 1
 100 402 l 1
975 402 m 1
 975 534 l 1
 1028 534 l 1
 1028 402 l 1
 975 402 l 1
100 210 m 1
 100 343 l 1
 154 343 l 1
 154 210 l 1
 100 210 l 1
975 210 m 1
 975 343 l 1
 1028 343 l 1
 1028 210 l 1
 975 210 l 1
975 19 m 1
 975 151 l 1
 1028 151 l 1
 1028 19 l 1
 975 19 l 1
100 19 m 1
 100 151 l 1
 154 151 l 1
 154 19 l 1
 100 19 l 1
880 -187 m 1
 880 -134 l 1
 975 -134 l 1
 975 -39 l 1
 1028 -39 l 1
 1028 -187 l 1
 880 -187 l 1
100 -187 m 1
 100 -39 l 1
 154 -39 l 1
 154 -134 l 1
 248 -134 l 1
 248 -187 l 1
 100 -187 l 1
498 -187 m 1
 498 -134 l 1
 631 -134 l 1
 631 -187 l 1
 498 -187 l 1
689 -187 m 1
 689 -134 l 1
 822 -134 l 1
 822 -187 l 1
 689 -187 l 1
307 -187 m 1
 307 -134 l 1
 439 -134 l 1
 439 -187 l 1
 307 -187 l 1
EndSplineSet
EndChar

StartChar: u1BCA0
Encoding: 113824 113824 48
Width: 1128
Flags: HW
LayerCount: 2
Fore
SplineSet
975 593 m 1
 975 687 l 1
 880 687 l 1
 880 741 l 1
 1028 741 l 1
 1028 593 l 1
 975 593 l 1
689 687 m 1
 689 741 l 1
 822 741 l 1
 822 687 l 1
 689 687 l 1
498 687 m 1
 498 741 l 1
 631 741 l 1
 631 687 l 1
 498 687 l 1
307 687 m 1
 307 741 l 1
 439 741 l 1
 439 687 l 1
 307 687 l 1
100 593 m 1
 100 741 l 1
 248 741 l 1
 248 687 l 1
 154 687 l 1
 154 593 l 1
 100 593 l 1
975 402 m 1
 975 534 l 1
 1028 534 l 1
 1028 402 l 1
 975 402 l 1
100 402 m 1
 100 534 l 1
 154 534 l 1
 154 402 l 1
 100 402 l 1
539 160 m 1
 539 256 l 1
 309 256 l 1
 309 210 l 1
 270 210 l 1
 270 344 l 1
 309 344 l 1
 309 298 l 1
 539 298 l 1
 539 394 l 1
 578 394 l 1
 578 298 l 1
 767 298 l 1
 748 320 729 352 709 394 c 1
 744 394 l 1
 785 345 829 309 876 286 c 1
 876 268 l 1
 829 245 785 209 744 160 c 1
 709 160 l 1
 729 202 748 234 767 256 c 1
 578 256 l 1
 578 160 l 1
 539 160 l 1
100 210 m 1
 100 343 l 1
 154 343 l 1
 154 210 l 1
 100 210 l 1
975 210 m 1
 975 343 l 1
 1028 343 l 1
 1028 210 l 1
 975 210 l 1
975 19 m 1
 975 151 l 1
 1028 151 l 1
 1028 19 l 1
 975 19 l 1
100 19 m 1
 100 151 l 1
 154 151 l 1
 154 19 l 1
 100 19 l 1
880 -187 m 1
 880 -134 l 1
 975 -134 l 1
 975 -39 l 1
 1028 -39 l 1
 1028 -187 l 1
 880 -187 l 1
100 -187 m 1
 100 -39 l 1
 154 -39 l 1
 154 -134 l 1
 248 -134 l 1
 248 -187 l 1
 100 -187 l 1
689 -187 m 1
 689 -134 l 1
 822 -134 l 1
 822 -187 l 1
 689 -187 l 1
498 -187 m 1
 498 -134 l 1
 631 -134 l 1
 631 -187 l 1
 498 -187 l 1
307 -187 m 1
 307 -134 l 1
 439 -134 l 1
 439 -187 l 1
 307 -187 l 1
EndSplineSet
EndChar

StartChar: u1BCA1
Encoding: 113825 113825 49
Width: 1128
Flags: HW
LayerCount: 2
Fore
SplineSet
100 593 m 1
 100 741 l 1
 248 741 l 1
 248 687 l 1
 154 687 l 1
 154 593 l 1
 100 593 l 1
975 593 m 1
 975 687 l 1
 880 687 l 1
 880 741 l 1
 1028 741 l 1
 1028 593 l 1
 975 593 l 1
689 687 m 1
 689 741 l 1
 822 741 l 1
 822 687 l 1
 689 687 l 1
498 687 m 1
 498 741 l 1
 631 741 l 1
 631 687 l 1
 498 687 l 1
307 687 m 1
 307 741 l 1
 439 741 l 1
 439 687 l 1
 307 687 l 1
274 339 m 1
 274 453 l 1
 313 453 l 1
 313 417 l 1
 541 417 l 1
 541 562 l 1
 583 562 l 1
 583 417 l 1
 707 417 l 1
 707 375 l 1
 583 375 l 1
 583 108 l 1
 750 108 l 1
 731 130 712 162 692 204 c 1
 727 204 l 1
 768 155 812 119 859 96 c 1
 859 78 l 1
 812 55 768 19 727 -30 c 1
 692 -30 l 1
 712 12 731 44 750 66 c 1
 541 66 l 1
 541 375 l 1
 313 375 l 1
 313 339 l 1
 274 339 l 1
100 402 m 1
 100 534 l 1
 154 534 l 1
 154 402 l 1
 100 402 l 1
975 402 m 1
 975 534 l 1
 1028 534 l 1
 1028 402 l 1
 975 402 l 1
100 210 m 1
 100 343 l 1
 154 343 l 1
 154 210 l 1
 100 210 l 1
975 210 m 1
 975 343 l 1
 1028 343 l 1
 1028 210 l 1
 975 210 l 1
975 19 m 1
 975 151 l 1
 1028 151 l 1
 1028 19 l 1
 975 19 l 1
100 19 m 1
 100 151 l 1
 154 151 l 1
 154 19 l 1
 100 19 l 1
880 -187 m 1
 880 -134 l 1
 975 -134 l 1
 975 -39 l 1
 1028 -39 l 1
 1028 -187 l 1
 880 -187 l 1
100 -187 m 1
 100 -39 l 1
 154 -39 l 1
 154 -134 l 1
 248 -134 l 1
 248 -187 l 1
 100 -187 l 1
498 -187 m 1
 498 -134 l 1
 631 -134 l 1
 631 -187 l 1
 498 -187 l 1
689 -187 m 1
 689 -134 l 1
 822 -134 l 1
 822 -187 l 1
 689 -187 l 1
307 -187 m 1
 307 -134 l 1
 439 -134 l 1
 439 -187 l 1
 307 -187 l 1
EndSplineSet
EndChar

StartChar: u1BC9D
Encoding: 113821 113821 50
Width: 1128
Flags: HW
LayerCount: 2
Fore
SplineSet
100 593 m 1
 100 741 l 1
 248 741 l 1
 248 687 l 1
 154 687 l 1
 154 593 l 1
 100 593 l 1
975 593 m 1
 975 687 l 1
 880 687 l 1
 880 741 l 1
 1028 741 l 1
 1028 593 l 1
 975 593 l 1
689 687 m 1
 689 741 l 1
 822 741 l 1
 822 687 l 1
 689 687 l 1
498 687 m 1
 498 741 l 1
 631 741 l 1
 631 687 l 1
 498 687 l 1
307 687 m 1
 307 741 l 1
 439 741 l 1
 439 687 l 1
 307 687 l 1
681 324 m 1
 681 550 l 1
 602 550 l 1
 602 600 l 1
 820 600 l 1
 820 550 l 1
 741 550 l 1
 741 324 l 1
 681 324 l 1
302 324 m 1
 302 600 l 1
 391 600 l 2
 477 600 531 552 531 460 c 0
 531 363 476 324 382 324 c 2
 302 324 l 1
362 374 m 1
 380 374 l 2
 444 374 476 396 476 458 c 0
 476 522 443 550 386 550 c 2
 362 550 l 1
 362 374 l 1
975 402 m 1
 975 534 l 1
 1028 534 l 1
 1028 402 l 1
 975 402 l 1
100 402 m 1
 100 534 l 1
 154 534 l 1
 154 402 l 1
 100 402 l 1
100 210 m 1
 100 343 l 1
 154 343 l 1
 154 210 l 1
 100 210 l 1
975 210 m 1
 975 343 l 1
 1028 343 l 1
 1028 210 l 1
 975 210 l 1
710 -14 m 0
 672 -14 633 -7 612 1 c 1
 612 53 l 1
 634 45 669 37 719 37 c 0
 753 37 769 52 769 67 c 0
 769 110 602 87 602 190 c 0
 602 244 659 270 716 270 c 0
 757 270 786 261 812 252 c 1
 792 204 l 1
 769 212 741 219 716 219 c 0
 678 219 664 206 664 196 c 0
 664 141 831 165 831 65 c 0
 831 17 782 -14 710 -14 c 0
302 -12 m 1
 302 264 l 1
 362 264 l 1
 362 38 l 1
 491 38 l 1
 491 -12 l 1
 302 -12 l 1
975 19 m 1
 975 151 l 1
 1028 151 l 1
 1028 19 l 1
 975 19 l 1
100 19 m 1
 100 151 l 1
 154 151 l 1
 154 19 l 1
 100 19 l 1
880 -187 m 1
 880 -134 l 1
 975 -134 l 1
 975 -39 l 1
 1028 -39 l 1
 1028 -187 l 1
 880 -187 l 1
100 -187 m 1
 100 -39 l 1
 154 -39 l 1
 154 -134 l 1
 248 -134 l 1
 248 -187 l 1
 100 -187 l 1
689 -187 m 1
 689 -134 l 1
 822 -134 l 1
 822 -187 l 1
 689 -187 l 1
498 -187 m 1
 498 -134 l 1
 631 -134 l 1
 631 -187 l 1
 498 -187 l 1
307 -187 m 1
 307 -134 l 1
 439 -134 l 1
 439 -187 l 1
 307 -187 l 1
EndSplineSet
EndChar

StartChar: uniE000
Encoding: 57344 57344 51
Width: 75
Flags: HWO
LayerCount: 2
Fore
SplineSet
0 75 m 1
 75 75 l 1
 75 0 l 1
 0 0 l 1
 0 75 l 1
0 714 m 1
 75 714 l 1
 75 639 l 1
 0 639 l 1
 0 714 l 1
EndSplineSet
EndChar
